{"title":"Austin Mahone Ft. Sean Garrett - Banga! Banga! [Music Video] 720","uid":9389437,"size":57909382,"categoryP":"video","categoryS":"music_videos","magnet":"?xt=urn:btih:15a9e5ba1e65b628c49ecac392d224723f21474b&amp;dn=Austin+Mahone+Ft.+Sean+Garrett+-+Banga%21+Banga%21+%5BMusic+Video%5D+720&amp;tr=udp%3A%2F%2Ftracker.openbittorrent.com%3A80&amp;tr=udp%3A%2F%2Fopen.demonii.com%3A1337&amp;tr=udp%3A%2F%2Ftracker.coppersurfer.tk%3A6969&amp;tr=udp%3A%2F%2Fexodus.desync.com%3A6969","seeders":1,"leechers":2,"uploader":"Sbyky","files":1,"time":1387855810,"description":"\n\nGeneral\nComplete name                            : Austin Mahone Ft. Sean Garrett - Banga! Banga! [Music Video] 720p [Sbyky].mp4\nFormat                                   : MPEG-4\nFormat profile                           : Base Media\nCodec ID                                 : isom\nFile size                                : 55.2 MiB\nDuration                                 : 3mn 27s\nOverall bit rate mode                    : Variable\nOverall bit rate                         : 2 235 Kbps\nEncoded date                             : UTC 2013-12-12 22:54:49\nTagged date                              : UTC 2013-12-12 22:54:49\n\nVideo\nID                                       : 1\nFormat                                   : AVC\nFormat/Info                              : Advanced Video Codec\nFormat profile                           : &lt;a class=&quot;__cf_email__&quot; href=&quot;/cdn-cgi/l/email-protection&quot; data-cfemail=&quot;9dd0fcf4f3ddd1aeb3ac&quot;&gt;[email&amp;#160;protected]&lt;/a&gt;&lt;script cf-hash='f9e31' type=&quot;text/javascript&quot;&gt;\n/* &lt;![CDATA[ */!function(){try{var t=&quot;currentScript&quot;in document?document.currentScript:function(){for(var t=document.getElementsByTagName(&quot;script&quot;),e=t.length;e--;)if(t[e].getAttribute(&quot;cf-hash&quot;))return t[e]}();if(t&amp;&amp;t.previousSibling){var e,r,n,i,c=t.previousSibling,a=c.getAttribute(&quot;data-cfemail&quot;);if(a){for(e=&quot;&quot;,r=parseInt(a.substr(0,2),16),n=2;a.length-n;n+=2)i=parseInt(a.substr(n,2),16)^r,e+=String.fromCharCode(i);e=document.createTextNode(e),c.parentNode.replaceChild(e,c)}}}catch(u){}}();/* ]]&gt; */&lt;/script&gt;\nFormat settings, CABAC                   : Yes\nFormat settings, ReFrames                : 3 frames\nCodec ID                                 : avc1\nCodec ID/Info                            : Advanced Video Coding\nDuration                                 : 3mn 27s\nBit rate                                 : 2 107 Kbps\nWidth                                    : 1 280 pixels\nHeight                                   : 720 pixels\nDisplay aspect ratio                     : 16:9\nFrame rate mode                          : Constant\nFrame rate                               : 23.976 fps\nColor space                              : YUV\nChroma subsampling                       : 4:2:0\nBit depth                                : 8 bits\nScan type                                : Progressive\nBits/(Pixel*Frame)                       : 0.095\nStream size                              : 52.0 MiB (94%)\nEncoded date                             : UTC 2013-12-12 22:54:49\nTagged date                              : UTC 2013-12-12 22:54:49\n\nAudio\nID                                       : 2\nFormat                                   : AAC\nFormat/Info                              : Advanced Audio Codec\nFormat profile                           : LC\nCodec ID                                 : 40\nDuration                                 : 3mn 27s\nBit rate mode                            : Variable\nBit rate                                 : 126 Kbps\nChannel(s)                               : 2 channels\nChannel positions                        : Front: L R\nSampling rate                            : 44.1 KHz\nCompression mode                         : Lossy\nDelay relative to video                  : 42ms\nStream size                              : 3.10 MiB (6%)\nEncoded date                             : UTC 2013-12-12 22:54:04\nTagged date                              : UTC 2013-12-12 22:54:04\n\nShared By Sbyky\n","torrent":{"xt":"urn:btih:15a9e5ba1e65b628c49ecac392d224723f21474b","amp;dn":"Austin+Mahone+Ft.+Sean+Garrett+-+Banga%21+Banga%21+%5BMusic+Video%5D+720","amp;tr":["udp%3A%2F%2Ftracker.openbittorrent.com%3A80","udp%3A%2F%2Fopen.demonii.com%3A1337","udp%3A%2F%2Ftracker.coppersurfer.tk%3A6969","udp%3A%2F%2Fexodus.desync.com%3A6969"],"infoHash":"15a9e5ba1e65b628c49ecac392d224723f21474b","infoHashBuffer":{"type":"Buffer","data":[21,169,229,186,30,101,182,40,196,158,202,195,146,210,36,114,63,33,71,75]},"announce":[],"urlList":[]}}